<?xml version="1.0" encoding="UTF-8" standalone="no"?>
<!-- Created with Inkscape (http://www.inkscape.org/) -->

<svg
   xmlns:dc="http://purl.org/dc/elements/1.1/"
   xmlns:cc="http://creativecommons.org/ns#"
   xmlns:rdf="http://www.w3.org/1999/02/22-rdf-syntax-ns#"
   xmlns:svg="http://www.w3.org/2000/svg"
   xmlns="http://www.w3.org/2000/svg"
   xmlns:xlink="http://www.w3.org/1999/xlink"
   xmlns:sodipodi="http://sodipodi.sourceforge.net/DTD/sodipodi-0.dtd"
   xmlns:inkscape="http://www.inkscape.org/namespaces/inkscape"
   width="512"
   height="512"
   viewBox="0 0 512.00001 512.00001"
   id="svg4583"
   version="1.1"
   inkscape:version="0.91 r13725"
   sodipodi:docname="icon.svg">
  <defs
     id="defs4585">
    <linearGradient
       inkscape:collect="always"
       id="linearGradient5283">
      <stop
         style="stop-color:#ffffff;stop-opacity:1;"
         offset="0"
         id="stop5285" />
      <stop
         style="stop-color:#ffffff;stop-opacity:0;"
         offset="1"
         id="stop5287" />
    </linearGradient>
    <filter
       height="1.3716586"
       y="-0.1858293"
       width="1.2287542"
       x="-0.11437708"
       id="filter4272"
       style="color-interpolation-filters:sRGB"
       inkscape:collect="always">
      <feGaussianBlur
         id="feGaussianBlur4274"
         stdDeviation="12.050548"
         inkscape:collect="always" />
    </filter>
    <clipPath
       id="clipPath4293"
       clipPathUnits="userSpaceOnUse">
      <path
         style="opacity:0.5;fill:#ffffff;fill-opacity:1;stroke:none;stroke-width:5;stroke-linecap:round;stroke-linejoin:round;stroke-miterlimit:4;stroke-dasharray:none;stroke-opacity:1;filter:url(#filter4272)"
         d="m 193.94922,226.14844 c -30.09154,0.0291 -55.82245,21.65049 -61.03516,51.28711 -4.22192,-9.37128 -13.53997,-17.40222 -23.81836,-17.41602 -14.448857,1.9e-4 -26.161923,13.71325 -26.162106,28.16211 0.0051,2.24786 0.299815,4.48569 0.876953,6.6582 -21.38139,3.14561 -37.231315,21.48027 -37.251953,43.0918 3.6e-5,24.07831 19.51935,43.85055 43.597656,43.85059 l 165.16016,0 44.10156,0 0,-43.85059 c -0.009,-24.20077 -19.5189,-43.87324 -43.71875,-44.08398 0.18076,-1.88337 0.27526,-3.77402 0.2832,-5.66602 1.1e-4,-34.26003 -27.77317,-62.03331 -62.0332,-62.0332 z"
         id="path4295"
         inkscape:connector-curvature="0"
         sodipodi:nodetypes="ccccccccccccc" />
    </clipPath>
    <linearGradient
       inkscape:collect="always"
       xlink:href="#linearGradient5283"
       id="linearGradient5289"
       x1="440.52747"
       y1="86.540115"
       x2="442.54782"
       y2="453.56757"
       gradientUnits="userSpaceOnUse"
       gradientTransform="translate(-181.92844,-149.16957)" />
  </defs>
  <sodipodi:namedview
     id="base"
     pagecolor="#ffffff"
     bordercolor="#666666"
     borderopacity="1.0"
     inkscape:pageopacity="0.0"
     inkscape:pageshadow="2"
     inkscape:zoom="0.49497475"
     inkscape:cx="266.38559"
     inkscape:cy="177.14286"
     inkscape:document-units="px"
     inkscape:current-layer="g4604"
     showgrid="false"
     units="px"
     inkscape:snap-page="true"
     inkscape:object-paths="true"
     inkscape:snap-bbox="true"
     inkscape:window-width="1366"
     inkscape:window-height="705"
     inkscape:window-x="-8"
     inkscape:window-y="-8"
     inkscape:window-maximized="1" />
  <metadata
     id="metadata4588">
    <rdf:RDF>
      <cc:Work
         rdf:about="">
        <dc:format>image/svg+xml</dc:format>
        <dc:type
           rdf:resource="http://purl.org/dc/dcmitype/StillImage" />
        <dc:title></dc:title>
      </cc:Work>
    </rdf:RDF>
  </metadata>
  <g
     inkscape:label="Capa 1"
     inkscape:groupmode="layer"
     id="layer1"
     transform="translate(0,-540.36216)">
    <g
       transform="translate(-181.92844,391.19259)"
       id="layer1-2"
       inkscape:label="Capa 1">
      <rect
         ry="42.426407"
         rx="42.426407"
         y="152.05269"
         x="183.94875"
         height="511.13718"
         width="511.13718"
         id="rect5281"
         style="opacity:1;fill:#ffff00;fill-opacity:1;stroke:none;stroke-width:1;stroke-linecap:round;stroke-linejoin:round;stroke-miterlimit:4;stroke-dasharray:none;stroke-opacity:1" />
      <rect
         y="888.31342"
         x="0"
         height="162.63455"
         width="1050.7606"
         id="rect4585"
         style="opacity:0.1;fill:#b3b3b3;fill-opacity:1;stroke:none;stroke-width:1;stroke-linecap:round;stroke-linejoin:round;stroke-miterlimit:4;stroke-dasharray:none;stroke-opacity:1" />
      <path
         inkscape:export-ydpi="208.30161"
         inkscape:export-xdpi="208.30161"
         id="path4600"
         d="m 302.80099,480.7791 0,71.62258 9.91521,0 0,-71.62258 -9.91521,0 z m 167.49247,0 0,22.60243 0.43409,6.80814 -0.43409,0 c -1.58173,-2.40074 -3.99147,-4.40804 -7.22696,-6.00853 -3.16355,-1.60049 -6.75705,-2.39884 -10.78339,-2.39884 -6.83043,0 -12.72945,2.49976 -17.69047,7.50114 -4.96106,5.00153 -7.44024,11.20974 -7.44024,18.61197 0,7.40223 2.47918,13.60282 7.44024,18.60435 4.96102,5.0015 10.86004,7.50114 17.69047,7.50114 4.02634,-4e-5 7.61984,-0.79835 10.78339,-2.39884 3.23549,-1.60049 5.64523,-3.60779 7.22696,-6.00853 l 0.43409,0 0,6.80815 9.48878,0 0,-71.62258 -9.92287,0 z m -205.57692,15.06321 c -1.41817,-0.0835 -2.85938,-0.0599 -4.3027,0.0685 -16.00931,1.43155 -27.82622,15.5716 -26.39487,31.58095 1.43162,16.00931 15.57164,27.82627 31.58095,26.39488 10.43757,-0.94798 19.55898,-7.43478 23.8818,-16.98228 l -8.37692,-3.73915 c -2.96582,6.47757 -9.171,10.86625 -16.26641,11.50683 -10.92352,0.97668 -20.57473,-7.08684 -21.55153,-18.01035 -0.97667,-10.92356 7.08688,-20.56705 18.01036,-21.54389 7.8762,-0.69372 15.41477,3.34924 19.19075,10.29598 l 8.02659,-4.43976 0.0456,0.0152 c -4.84838,-8.90945 -13.91656,-14.5625 -23.84371,-15.14698 z m 79.63391,5.93999 c -7.90891,0 -14.42098,2.49976 -19.5258,7.50114 -5.10486,4.93482 -7.65345,11.14307 -7.65345,18.61197 0,7.46894 2.54859,13.70182 7.65345,18.70335 5.10482,4.93482 11.61689,7.4021 19.5258,7.40214 7.90892,0 14.41335,-2.46732 19.5182,-7.40214 5.10482,-5.00153 7.66109,-11.23441 7.66109,-18.70335 0,-7.46891 -2.55627,-13.67715 -7.66109,-18.61197 -5.10485,-5.00138 -11.60928,-7.50114 -19.5182,-7.50114 z m 167.60673,0 c -7.90892,0 -14.41339,2.49976 -19.5182,7.50114 -5.10486,4.93482 -7.66105,11.14307 -7.66105,18.61197 0,7.46894 2.55619,13.70182 7.66105,18.70335 5.10481,4.93482 11.60928,7.4021 19.5182,7.40214 5.8957,-4e-5 10.81933,-1.33821 14.77381,-4.00568 4.02633,-2.73415 6.93738,-6.0968 8.73485,-10.09799 l -8.84145,-3.50307 c -2.8041,6.13519 -7.90888,9.19937 -15.3145,9.19937 -4.38583,0 -8.27231,-1.66147 -11.65151,-4.99568 -3.30739,-3.33437 -4.95763,-7.56756 -4.95763,-12.70244 0,-5.13488 1.65024,-9.37573 4.95763,-12.71006 3.37924,-3.33436 7.26568,-4.99568 11.65151,-4.99568 7.11803,0 12.04166,3.06418 14.77381,9.19937 l 9.0623,-3.50307 c -1.79747,-4.06786 -4.63908,-7.43051 -8.52161,-10.09798 -3.88258,-2.66747 -8.77151,-4.00569 -14.66721,-4.00569 z m 89.06938,0 c -3.09169,0 -6.21859,0.83825 -9.38214,2.50546 -3.09169,1.60033 -5.38964,3.56785 -6.89952,5.90191 l -0.43408,0 0,-6.80814 -9.48874,0 0,49.02015 9.92282,0 0,-27.11073 c 0,-3.93451 1.26073,-7.434 3.77723,-10.5016 2.58836,-3.06755 5.8194,-4.59968 9.70198,-4.59968 3.95443,0 6.90778,1.03217 8.84905,3.09946 1.94127,2.06728 2.9091,5.56677 2.9091,10.50159 l 0,28.61096 9.92282,0 0,-27.11073 c 0,-3.93451 1.25316,-7.434 3.76962,-10.5016 2.58836,-3.06755 5.82716,-4.59968 9.70958,-4.59968 3.95448,0 6.90019,1.03217 8.84146,3.09946 1.94131,2.06728 2.9167,5.56677 2.9167,10.50159 l 0,28.61096 9.92282,0 0,-30.01219 c 0,-6.3352 -1.5884,-11.33454 -4.75199,-15.00228 -3.16355,-3.73445 -7.87145,-5.60491 -14.12653,-5.60491 -7.98081,0 -14.1229,3.13641 -18.43683,9.40498 -2.94785,-6.26857 -8.52684,-9.40498 -16.72335,-9.40498 z m -36.26439,0.40362 c -2.94789,0 -6.00531,0.86296 -9.1689,2.59684 -3.09165,1.73383 -5.13901,3.93505 -6.1456,6.60252 l -0.43408,0 0,-8.00375 -9.48878,0 0,49.02015 9.92286,0 0,-26.81373 c 0,-4.26796 1.36491,-7.70284 4.09707,-10.3036 2.80409,-2.66747 6.00804,-3.99807 9.60298,-3.99807 2.2289,0 3.99089,0.23399 5.28507,0.70062 l 3.76958,-8.60537 c -2.01316,-0.80025 -4.49235,-1.19561 -7.4402,-1.19561 z m -189.06682,1.19561 0,30.01218 c 0,6.26853 1.69259,11.26779 5.07184,15.00228 3.45118,3.73433 8.48652,5.60487 15.10125,5.60491 3.45115,-4e-5 6.71697,-0.79835 9.80862,-2.39884 3.09169,-1.66716 5.39725,-3.67447 6.90712,-6.00853 l 0.42648,0 0,6.80815 9.49638,0 0,-49.02015 -9.92286,0 0,27.01172 c 0,4.00119 -1.29542,7.53301 -3.88382,10.6006 -2.58824,3.06759 -5.93123,4.59968 -10.02946,4.59968 -8.6998,4e-5 -13.05273,-4.56395 -13.05273,-13.70005 l 0,-28.51195 -9.92282,0 z m -31.3449,6.80814 c 4.67343,0 8.69871,1.62903 12.078,4.89668 3.45103,3.20094 5.17843,7.47412 5.17843,12.80906 0,5.33494 -1.7274,9.63278 -5.17843,12.90044 -3.37929,3.20094 -7.40457,4.79772 -12.078,4.79768 -4.67346,4e-5 -8.74105,-1.59674 -12.19219,-4.79768 -3.37929,-3.26766 -5.06423,-7.5655 -5.06423,-12.90044 0,-5.33495 1.68494,-9.60812 5.06423,-12.80906 3.45114,-3.26765 7.51873,-4.89668 12.19219,-4.89668 z m 109.54715,0 c 4.67347,0 8.62931,1.5967 11.86476,4.79769 3.30734,3.20094 4.96519,7.50643 4.96519,12.90805 0,5.40161 -1.65785,9.69946 -4.96519,12.90044 -3.23545,3.20094 -7.19129,4.79772 -11.86476,4.79768 -4.60153,4e-5 -8.5498,-1.59674 -11.85715,-4.79768 -3.30739,-3.26766 -4.96523,-7.5655 -4.96523,-12.90044 0,-5.33495 1.65784,-9.60812 4.96523,-12.80906 3.30735,-3.26765 7.25562,-4.89668 11.85715,-4.89668 z"
         style="font-style:normal;font-weight:normal;font-size:31.98914146px;line-height:125%;font-family:sans-serif;letter-spacing:0px;word-spacing:0px;fill:#ff0000;fill-opacity:1;stroke:none;stroke-width:1px;stroke-linecap:butt;stroke-linejoin:miter;stroke-opacity:1"
         inkscape:connector-curvature="0" />
      <g
         inkscape:export-ydpi="208.30161"
         inkscape:export-xdpi="208.30161"
         transform="matrix(6.9164086,0,0,6.9164086,-679.37828,-2559.2737)"
         id="g4604">
        <path
           sodipodi:nodetypes="cccccccccccccc"
           inkscape:connector-curvature="0"
           id="path4606"
           d="m 163.19727,402.04419 c -6.48946,0.006 -12.03852,4.66909 -13.16267,11.06045 -0.91049,-2.02099 -2.92,-3.75292 -5.13661,-3.7559 -3.116,4e-5 -5.64201,2.95737 -5.64204,6.07338 8.8e-4,0.48476 0.0647,0.96737 0.18911,1.43588 -4.61105,0.67838 -8.0292,4.63238 -8.03365,9.29306 0,5.19266 4.20949,9.45669 9.40215,9.4567 l 35.618,0 16.13581,0 c -4.53203,-0.20888 -7.08792,-2.92087 -6.625,-9.4567 -0.002,-5.21908 -4.20939,-9.46159 -9.42826,-9.50703 0.039,-0.40616 0.0593,-0.8139 0.0611,-1.22191 3e-5,-7.38844 -5.98949,-13.37794 -13.37791,-13.37793 z"
           style="opacity:1;fill:#ff0000;fill-opacity:1;stroke:none;stroke-width:5;stroke-linecap:round;stroke-linejoin:round;stroke-miterlimit:4;stroke-dasharray:none;stroke-opacity:1" />
        <path
           inkscape:connector-curvature="0"
           id="path4608"
           transform="translate(0,308.26772)"
           d="m 183.4375,118.46875 c -5.29763,0 -9.5625,0.10542 -9.5625,0.23633 l 0,8.63476 2.55664,0 16.13477,0 c -4.3855,-0.20212 -6.9105,-2.75913 -6.65039,-8.8457 -0.88098,-0.007 -1.50844,-0.0254 -2.47852,-0.0254 z"
           style="opacity:0.1;fill:#ffffff;fill-opacity:1;stroke:none;stroke-width:1;stroke-linecap:round;stroke-linejoin:round;stroke-miterlimit:4;stroke-dasharray:none;stroke-opacity:1" />
        <path
           inkscape:connector-curvature="0"
           transform="translate(0,308.26772)"
           id="path4610"
           d="m 183.875,123.21875 c -9.8335,0 -17.75,0.10542 -17.75,0.23633 l 0,3.88476 10.30664,0 16.13477,0 c -3.0038,-0.13844 -5.12976,-1.38522 -6.09375,-4.10742 -0.96907,-0.002 -1.58098,-0.0137 -2.59766,-0.0137 z"
           style="opacity:0.1;fill:#ffffff;fill-opacity:1;stroke:none;stroke-width:1;stroke-linecap:round;stroke-linejoin:round;stroke-miterlimit:4;stroke-dasharray:none;stroke-opacity:1" />
        <path
           inkscape:connector-curvature="0"
           id="path4612"
           transform="translate(0,308.26772)"
           d="m 183.14062,111.15039 c -1.929,0.043 -3.36718,0.10173 -3.36718,0.17969 l 0,16.00976 12.79297,0 c -4.53203,-0.20888 -7.08792,-2.9212 -6.625,-9.45703 -10e-4,-2.63043 -1.07219,-5.01043 -2.80079,-6.73242 z"
           style="opacity:0.1;fill:#ffffff;fill-opacity:1;stroke:none;stroke-width:1;stroke-linecap:round;stroke-linejoin:round;stroke-miterlimit:4;stroke-dasharray:none;stroke-opacity:1" />
      </g>
      <path
         inkscape:export-ydpi="208.30161"
         inkscape:export-xdpi="208.30161"
         id="path4614"
         d="m 302.80099,480.7791 0,43.87216 a 326.36687,35.841769 0 0 0 9.91521,0.61684 l 0,-44.489 -9.91521,0 z m 167.49247,0 0,22.60243 0.43409,6.80814 -0.43409,0 c -1.58173,-2.40074 -3.99147,-4.40804 -7.22696,-6.00853 -3.16355,-1.60049 -6.75705,-2.39884 -10.78339,-2.39884 -6.83043,0 -12.72945,2.49976 -17.69047,7.50114 -4.96106,5.00153 -7.44024,11.20974 -7.44024,18.61197 0,0.44059 0.0351,0.86253 0.0534,1.29461 a 326.36687,35.841769 0 0 0 9.98377,0.11425 c -0.0273,-0.47571 -0.11424,-0.9154 -0.11424,-1.40885 0,-5.33494 1.65784,-9.60811 4.96523,-12.80906 3.30735,-3.26765 7.25562,-4.89668 11.85715,-4.89668 4.67346,0 8.6293,1.59671 11.86475,4.79769 3.30735,3.20094 4.9652,7.50644 4.9652,12.90805 0,0.54007 -0.0889,1.02029 -0.12166,1.53831 a 326.36687,35.841769 0 0 0 9.61063,-0.0382 l 0,-48.61654 -9.92286,0 z m -205.57692,15.06321 c -1.41817,-0.0835 -2.85938,-0.0599 -4.3027,0.0685 -13.06372,1.16816 -23.32463,10.80304 -25.88464,23.00604 a 326.36687,35.841769 0 0 0 9.34404,0.95954 c 2.06004,-7.87574 8.8484,-13.99172 17.42398,-14.75859 7.8762,-0.69372 15.41477,3.34924 19.19075,10.29598 l 8.02659,-4.43976 0.0456,0.0152 c -4.84838,-8.90945 -13.91656,-14.5625 -23.84371,-15.14698 z m 79.63391,5.93999 c -7.90891,0 -14.42098,2.49976 -19.5258,7.50114 -4.55006,4.39849 -7.05299,9.81556 -7.54685,16.22836 a 326.36687,35.841769 0 0 0 9.97617,0.52546 c 0.36183,-4.45465 1.93818,-8.14132 4.90429,-10.95091 3.45114,-3.26765 7.51873,-4.89668 12.19219,-4.89668 4.67343,0 8.69871,1.62903 12.078,4.89668 3.37492,3.13036 5.07347,7.30249 5.14798,12.47398 a 326.36687,35.841769 0 0 0 9.95331,0.36554 c 0,-0.0105 0,-0.0203 0,-0.0304 0,-7.46891 -2.55627,-13.67715 -7.66109,-18.61197 -5.10485,-5.00138 -11.60928,-7.50114 -19.5182,-7.50114 z m 167.60673,0 c -7.90892,0 -14.41339,2.49976 -19.5182,7.50114 -5.10486,4.93482 -7.66105,11.14307 -7.66105,18.61197 0,0.50575 0.0452,0.99058 0.0686,1.485 a 326.36687,35.841769 0 0 0 9.96852,-0.099 c -0.0273,-0.4667 -0.11424,-0.90337 -0.11424,-1.386 0,-5.13488 1.65024,-9.37572 4.95762,-12.71005 3.37925,-3.33437 7.26569,-4.99569 11.65152,-4.99569 7.11802,0 12.04165,3.06419 14.77381,9.19937 l 9.0623,-3.50307 c -1.79747,-4.06786 -4.63908,-7.43051 -8.52162,-10.09798 -3.88257,-2.66747 -8.7715,-4.00569 -14.66721,-4.00569 z m 89.06938,0 c -3.09169,0 -6.21859,0.83825 -9.38214,2.50546 -3.09169,1.60033 -5.38964,3.56785 -6.89952,5.90191 l -0.43408,0 0,-6.80814 -9.48874,0 0,23.96557 a 326.36687,35.841769 0 0 0 9.92282,-0.38078 l 0,-1.67538 c 0,-3.93452 1.26073,-7.43401 3.77723,-10.5016 2.58836,-3.06756 5.8194,-4.59969 9.70198,-4.59969 3.95443,0 6.90778,1.03217 8.84905,3.09946 1.94127,2.06729 2.9091,5.56678 2.9091,10.5016 l 0,1.94192 a 326.36687,35.841769 0 0 0 9.93042,-0.57877 c 0.0312,-3.87741 1.27551,-7.33346 3.76202,-10.36452 2.58836,-3.06756 5.82716,-4.59969 9.70958,-4.59969 3.95448,0 6.90019,1.03217 8.84146,3.09946 1.90255,2.02603 2.86328,5.44726 2.90145,10.22745 a 326.36687,35.841769 0 0 0 9.93807,-0.78439 l 0,-0.34269 c 0,-6.33521 -1.5884,-11.33454 -4.75199,-15.00228 -3.16355,-3.73445 -7.87145,-5.60491 -14.12653,-5.60491 -7.98081,0 -14.1229,3.13641 -18.43683,9.40498 -2.94785,-6.26857 -8.52684,-9.40498 -16.72335,-9.40498 z m -36.26439,0.40362 c -2.94789,0 -6.00531,0.86296 -9.1689,2.59684 -3.09165,1.73383 -5.13901,3.93506 -6.1456,6.60252 l -0.43408,0 0,-8.00375 -9.48878,0 0,25.10026 a 326.36687,35.841769 0 0 0 9.92286,-0.24369 l 0,-2.65015 c 0,-4.26796 1.36491,-7.70284 4.09707,-10.3036 2.80409,-2.66746 6.00804,-3.99807 9.60298,-3.99807 2.2289,0 3.99089,0.23399 5.28507,0.70062 l 3.76958,-8.60537 c -2.01316,-0.80025 -4.49235,-1.19561 -7.4402,-1.19561 z m -189.06682,1.19561 0,24.66619 a 326.36687,35.841769 0 0 0 9.92282,0.27414 l 0,-24.94034 -9.92282,0 z m 36.88883,0 0,25.55719 a 326.36687,35.841769 0 0 0 9.92286,0.16754 l 0,-25.72473 -9.92286,0 z"
         style="opacity:0.1;fill:#ffffff;fill-opacity:1;stroke:none;stroke-width:1;stroke-linecap:round;stroke-linejoin:round;stroke-miterlimit:4;stroke-dasharray:none;stroke-opacity:1"
         inkscape:connector-curvature="0" />
      <path
         style="opacity:0.8;fill:url(#linearGradient5289);fill-opacity:1;stroke:none;stroke-width:1;stroke-linecap:round;stroke-linejoin:round;stroke-miterlimit:4;stroke-dasharray:none;stroke-opacity:1"
         d="M 44.447266 2.8828125 C 20.943036 2.8828125 2.0195312 21.804364 2.0195312 45.308594 L 2.0195312 211.93164 A 450.52805 170.71577 0 0 0 228.29492 235.21875 A 450.52805 170.71577 0 0 0 513.1582 196.62695 L 513.1582 45.308594 C 513.1582 21.804364 494.2347 2.8828125 470.73047 2.8828125 L 44.447266 2.8828125 z "
         transform="translate(181.92844,149.16957)"
         id="rect5279" />
    </g>
  </g>
</svg>
